<svg width="666" height="472" viewBox="0 0 666 472" fill="none" xmlns="http://www.w3.org/2000/svg">
<path d="M66.006 58.2L49.71 109.998L33.802 58.2H11.88L39.428 137.158V194H59.992V137.158L87.54 58.2H66.006ZM130.435 195.94C150.223 195.94 163.415 182.748 163.415 163.154V89.046C163.415 69.452 150.223 56.26 130.435 56.26C110.647 56.26 97.4552 69.452 97.4552 89.046V163.154C97.4552 182.748 110.647 195.94 130.435 195.94ZM130.435 176.54C122.869 176.54 118.019 171.69 118.019 163.154V89.046C118.019 80.51 122.869 75.66 130.435 75.66C138.001 75.66 142.851 80.51 142.851 89.046V163.154C142.851 171.69 138.001 176.54 130.435 176.54ZM229.084 194H250.036L227.532 58.2H199.984L177.48 194H198.044L202.506 163.93H224.622L229.084 194ZM205.222 144.142L213.564 87.3L221.906 144.142H205.222ZM265.92 194H286.096V107.088L313.256 194H334.984V58.2H314.808V149.38L288.618 58.2H265.92V194ZM357.426 194H377.602V107.088L404.762 194H426.49V58.2H406.314V149.38L380.124 58.2H357.426V194ZM99.568 291.2L88.316 382.962L77.064 291.2H56.112L44.86 382.962L33.608 291.2H12.85L32.832 427H55.53L66.394 337.566L77.258 427H99.956L119.938 291.2H99.568ZM176.606 427H197.558L175.054 291.2H147.506L125.002 427H145.566L150.028 396.93H172.144L176.606 427ZM152.744 377.142L161.086 320.3L169.428 377.142H152.744ZM280.953 427L263.687 366.278C272.611 360.846 277.849 351.146 277.849 338.536V323.598C277.849 304.004 265.239 291.2 245.645 291.2H213.441V427H234.005V370.934H244.675L259.613 427H280.953ZM234.005 310.6H244.675C252.629 310.6 257.285 315.256 257.285 323.21V338.924C257.285 346.878 252.629 351.534 244.675 351.534H234.005V310.6ZM361.962 333.492V322.046C361.962 302.452 348.77 289.26 328.982 289.26C309.194 289.26 296.002 302.452 296.002 322.046V396.154C296.002 415.748 309.194 428.94 328.982 428.94C348.77 428.94 361.962 415.748 361.962 396.154V352.698H328.982V372.098H341.398V396.154C341.398 404.69 336.548 409.54 328.982 409.54C321.416 409.54 316.566 404.69 316.566 396.154V322.046C316.566 313.51 321.416 308.66 328.982 308.66C336.548 308.66 341.398 313.51 341.398 322.046V333.492H361.962ZM381.865 427H402.041V340.088L429.201 427H450.929V291.2H430.753V382.38L404.563 291.2H381.865V427ZM473.371 427H493.935V291.2H473.371V427ZM516.377 427H574.771V407.6H536.941V367.83H567.011V348.43H536.941V310.6H574.771V291.2H516.377V427ZM659.481 427L642.215 366.278C651.139 360.846 656.377 351.146 656.377 338.536V323.598C656.377 304.004 643.767 291.2 624.173 291.2H591.969V427H612.533V370.934H623.203L638.141 427H659.481ZM612.533 310.6H623.203C631.157 310.6 635.813 315.256 635.813 323.21V338.924C635.813 346.878 631.157 351.534 623.203 351.534H612.533V310.6Z" fill="#1A1A1A"/>
<g filter="url(#filter0_bii)">
<path d="M58.006 64.2L41.71 115.998L25.802 64.2H3.88L31.428 143.158V200H51.992V143.158L79.54 64.2H58.006ZM122.435 201.94C142.223 201.94 155.415 188.748 155.415 169.154V95.046C155.415 75.452 142.223 62.26 122.435 62.26C102.647 62.26 89.4552 75.452 89.4552 95.046V169.154C89.4552 188.748 102.647 201.94 122.435 201.94ZM122.435 182.54C114.869 182.54 110.019 177.69 110.019 169.154V95.046C110.019 86.51 114.869 81.66 122.435 81.66C130.001 81.66 134.851 86.51 134.851 95.046V169.154C134.851 177.69 130.001 182.54 122.435 182.54ZM221.084 200H242.036L219.532 64.2H191.984L169.48 200H190.044L194.506 169.93H216.622L221.084 200ZM197.222 150.142L205.564 93.3L213.906 150.142H197.222ZM257.92 200H278.096V113.088L305.256 200H326.984V64.2H306.808V155.38L280.618 64.2H257.92V200ZM349.426 200H369.602V113.088L396.762 200H418.49V64.2H398.314V155.38L372.124 64.2H349.426V200ZM91.568 297.2L80.316 388.962L69.064 297.2H48.112L36.86 388.962L25.608 297.2H4.85L24.832 433H47.53L58.394 343.566L69.258 433H91.956L111.938 297.2H91.568ZM168.606 433H189.558L167.054 297.2H139.506L117.002 433H137.566L142.028 402.93H164.144L168.606 433ZM144.744 383.142L153.086 326.3L161.428 383.142H144.744ZM272.953 433L255.687 372.278C264.611 366.846 269.849 357.146 269.849 344.536V329.598C269.849 310.004 257.239 297.2 237.645 297.2H205.441V433H226.005V376.934H236.675L251.613 433H272.953ZM226.005 316.6H236.675C244.629 316.6 249.285 321.256 249.285 329.21V344.924C249.285 352.878 244.629 357.534 236.675 357.534H226.005V316.6ZM353.962 339.492V328.046C353.962 308.452 340.77 295.26 320.982 295.26C301.194 295.26 288.002 308.452 288.002 328.046V402.154C288.002 421.748 301.194 434.94 320.982 434.94C340.77 434.94 353.962 421.748 353.962 402.154V358.698H320.982V378.098H333.398V402.154C333.398 410.69 328.548 415.54 320.982 415.54C313.416 415.54 308.566 410.69 308.566 402.154V328.046C308.566 319.51 313.416 314.66 320.982 314.66C328.548 314.66 333.398 319.51 333.398 328.046V339.492H353.962ZM373.865 433H394.041V346.088L421.201 433H442.929V297.2H422.753V388.38L396.563 297.2H373.865V433ZM465.371 433H485.935V297.2H465.371V433ZM508.377 433H566.771V413.6H528.941V373.83H559.011V354.43H528.941V316.6H566.771V297.2H508.377V433ZM651.481 433L634.215 372.278C643.139 366.846 648.377 357.146 648.377 344.536V329.598C648.377 310.004 635.767 297.2 616.173 297.2H583.969V433H604.533V376.934H615.203L630.141 433H651.481ZM604.533 316.6H615.203C623.157 316.6 627.813 321.256 627.813 329.21V344.924C627.813 352.878 623.157 357.534 615.203 357.534H604.533V316.6Z" fill="#1F1F1F" fill-opacity="0.034"/>
</g>
<defs>
<filter id="filter0_bii" x="-33.5868" y="24.7933" width="722.534" height="447.613" filterUnits="userSpaceOnUse" color-interpolation-filters="sRGB">
<feFlood flood-opacity="0" result="BackgroundImageFix"/>
<feGaussianBlur in="BackgroundImage" stdDeviation="4.87067"/>
<feComposite in2="SourceAlpha" operator="in" result="effect1_backgroundBlur"/>
<feBlend mode="normal" in="SourceGraphic" in2="effect1_backgroundBlur" result="shape"/>
<feColorMatrix in="SourceAlpha" type="matrix" values="0 0 0 0 0 0 0 0 0 0 0 0 0 0 0 0 0 0 127 0" result="hardAlpha"/>
<feOffset dx="-37.4667" dy="37.4667"/>
<feGaussianBlur stdDeviation="18.7333"/>
<feComposite in2="hardAlpha" operator="arithmetic" k2="-1" k3="1"/>
<feColorMatrix type="matrix" values="0 0 0 0 1 0 0 0 0 1 0 0 0 0 1 0 0 0 0.037 0"/>
<feBlend mode="normal" in2="shape" result="effect2_innerShadow"/>
<feColorMatrix in="SourceAlpha" type="matrix" values="0 0 0 0 0 0 0 0 0 0 0 0 0 0 0 0 0 0 127 0" result="hardAlpha"/>
<feOffset dx="37.4667" dy="-37.4667"/>
<feGaussianBlur stdDeviation="18.7333"/>
<feComposite in2="hardAlpha" operator="arithmetic" k2="-1" k3="1"/>
<feColorMatrix type="matrix" values="0 0 0 0 0.0918333 0 0 0 0 0.0918333 0 0 0 0 0.0918333 0 0 0 0.037 0"/>
<feBlend mode="normal" in2="effect2_innerShadow" result="effect3_innerShadow"/>
</filter>
</defs>
</svg>
